<svg xmlns="http://www.w3.org/2000/svg" viewBox="0 0 24 24">
  <!-- spout -->
  <path fill="currentColor" d="M11.4 2.2c-1.1 1-1.1 2.4 0 3.4.5-.5.8-1.1.8-1.7s-.3-1.2-.8-1.7zm2.6 1.1c-.8.7-.8 1.7 0 2.4.4-.4.6-.8.6-1.2s-.2-.8-.6-1.2z"/>
  <!-- body + tail -->
  <path fill="currentColor" d="M2.2 13.6c0-3.7 3.6-6.3 8.1-6.3 3.9 0 7.1 2 8 4.7.9.1 1.9-.2 2.8-1-.1 1.6-.9 2.8-2 3.4-.1.2-.2.4-.4.6.9.5 1.6 1.3 2 2.4-1.3.1-2.4-.1-3.4-.5-1.6 1.2-3.9 1.9-6.9 1.9-4.5 0-8.1-2.6-8.1-5.6z"/>
  <!-- eye -->
  <circle cx="6.6" cy="12.4" r=".95" fill="#0b1020"/>
</svg>
